<svg width="20" height="21" viewBox="0 0 20 21" fill="none" xmlns="http://www.w3.org/2000/svg">
<path fill-rule="evenodd" clip-rule="evenodd" d="M1.51017 8.28852L0.435871 11.8779C0.337883 12.2053 0.445203 12.564 0.701747 12.7663L10 20.1L1.51017 8.28852Z" fill="#FCA326"/>
<path fill-rule="evenodd" clip-rule="evenodd" d="M18.4898 8.28852L19.5641 11.8779C19.6621 12.2053 19.5548 12.564 19.2983 12.7663L10 20.1L18.4898 8.28852Z" fill="#FCA326"/>
<path fill-rule="evenodd" clip-rule="evenodd" d="M9.99999 20.1L6.46474 8.28844H1.51016L9.99999 20.1Z" fill="#FC6D26"/>
<path fill-rule="evenodd" clip-rule="evenodd" d="M10 20.1L13.5353 8.28844H18.4898L10 20.1Z" fill="#FC6D26"/>
<path fill-rule="evenodd" clip-rule="evenodd" d="M18.4897 8.2885H13.5352L15.6645 1.17454C15.774 0.808439 16.251 0.808538 16.3605 1.17454L18.4897 8.2885Z" fill="#E24329"/>
<path fill-rule="evenodd" clip-rule="evenodd" d="M1.51028 8.2885H6.46486L4.33556 1.17454C4.22604 0.808439 3.74901 0.808538 3.63949 1.17454L1.51028 8.2885Z" fill="#E24329"/>
<path fill-rule="evenodd" clip-rule="evenodd" d="M9.99995 20.1L13.5352 8.28852H6.46469L9.99995 20.1Z" fill="#E24329"/>
</svg>
